<?xml version="1.0" standalone="no"?>
<!DOCTYPE svg PUBLIC "-//W3C//DTD SVG 20010904//EN"
 "http://www.w3.org/TR/2001/REC-SVG-20010904/DTD/svg10.dtd">
<svg version="1.0" xmlns="http://www.w3.org/2000/svg"
 width="512.000000pt" height="512.000000pt" viewBox="0 0 512.000000 512.000000"
 preserveAspectRatio="xMidYMid meet">
<metadata>
Created by potrace 1.14, written by Peter Selinger 2001-2017
</metadata>
<g transform="translate(0.000000,512.000000) scale(0.100000,-0.100000)"
fill="#000000" stroke="none">
<path d="M896 4879 c-37 -133 -66 -242 -64 -243 2 -1 140 -36 308 -77 263 -65
306 -73 311 -60 4 9 18 111 33 226 15 116 33 252 40 303 l12 92 -286 0 -286 0
-68 -241z"/>
<path d="M647 4298 c-387 -625 -526 -1325 -407 -2043 73 -439 237 -820 503
-1175 62 -81 283 -309 388 -399 330 -282 810 -511 1279 -611 268 -57 349 -65
680 -65 330 0 448 12 690 70 347 83 690 240 946 433 155 116 199 195 192 342
-3 73 -9 94 -38 148 -40 76 -104 135 -174 160 -44 17 -90 20 -356 25 -405 8
-664 38 -964 113 -444 111 -791 275 -1111 525 -105 81 -299 273 -378 372 -87
109 -192 291 -251 437 -15 36 -31 74 -36 85 -23 51 -82 258 -108 383 -63 292
-84 506 -84 843 l-1 246 -357 92 c-197 50 -360 91 -363 91 -3 0 -25 -33 -50
-72z"/>
</g>
</svg>
